<svg xmlns="http://www.w3.org/2000/svg" xmlns:xlink="http://www.w3.org/1999/xlink" width="683" height="367" viewBox="0 0 683 367">
    <defs>
        <path id="a" d="M683 341.126C683 152.727 530.105 0 341.5 0S0 152.727 0 341.126c370.04 0 447.788 1.966 683 0z"/>
    </defs>
    <g fill="none" fill-rule="evenodd">
        <g>
            <mask id="b" fill="#fff">
                <use xlink:href="#a"/>
            </mask>
            <use fill="#FFF" xlink:href="#a"/>
            <path fill="#F5F5F5" fill-rule="nonzero" d="M184 341v1H-38v-2.638h5.503v-51.684h14.754V268.97H1.29v-21.738h6.064V238H37.03v9.232h6.062v32.257l7.148-4.807v-31.518l19.373-14.4v-15.795h7.292v10.374l2.524-1.876V192h7.291v24.047l26.18-19.457v30.87c10.834-7.638 21.607-9.572 21.825-9.608l1.944-.325V338.67h6.602v-92.864h4.259v-17.485h10.02V217h3.336v11.32h10.02v17.486h4.259v.543h24.96V231h20.333v35.814h30.5v-20.465h20.334v89.535h.616V227.952h7.26v-11.097h35.543v11.097h7.262v26.127h22.796v22.485h6.951v-62.31h5.65v-23.22h13.291V176h4.427v15.034h13.291v23.22h5.65v123.323h8.757V176.7l2.578.432c.586.097 58.416 10.497 58.416 72.99v87.455h4.128V227.952h7.26v-11.097h35.543v11.097h7.262v26.127h9.811v-31.13l8.317 5.591v-35.95l26.179 19.457V188h7.29v29.467l2.525 1.876v-10.374h7.292v15.795l19.373 14.4v31.518l8.178 5.5v-29.094H613v-9.233h29.677v9.233h6.063v21.738h19.034v18.707h14.753v51.685h5.503v2.637h-86v-2.637h4.908V338H558.44v.685h6.59v3.17H470V342H340v-.145h-73.97V341H184zm64.417-66.512v10.233h10.166v-10.233h-10.166zm0 20.465v10.233h10.166v-10.233h-10.166zm-20.334-20.465v10.233h10.167v-10.233h-10.167zm0 20.465v10.233h10.167v-10.233h-10.167zm-20.333-20.465v10.233h10.167v-10.233H207.75zm0 20.465v10.233h10.167v-10.233H207.75zm-20.333-40.93v10.233h10.166v-10.233h-10.166zm0 20.465v10.233h10.166v-10.233h-10.166zm0 20.465v10.233h10.166v-10.233h-10.166zm48.291 40.93h5.084V312.86h-35.584v23.024h5.084v-17.907h10.166v17.907h5.084v-17.907h10.166v17.907zm-56.603-94.297v-22.965H174v-5.104h5.105v-15.31H174v-5.104h5.105V188h5.106v5.103h22.973V188h5.105v5.103h5.106v5.104h-5.106v15.31h22.974V203.31h5.105v10.207h20.421V203.31h5.106v10.207H271v5.104h-5.105v12.758H271v5.104h-5.105v5.103h-5.106v-5.103h-20.42V262h-5.106v-25.517h-10.21v-5.104h10.21v-12.758H212.29v7.655h-5.105v-7.655h-22.973v22.965h-5.106zm81.684-22.965h-20.42v12.758h20.42v-12.758zm-76.578-20.414v15.31h22.973v-15.31h-22.973z" mask="url(#b)"/>
            <g fill="#747474" fill-rule="nonzero" mask="url(#b)">
                <path stroke="#747474" stroke-width="1.2" d="M231.833 270v7.978H244v5.185h-12.167v36.697h8.072V341h-59.882v-45.073h33.596v23.933h8.905v-36.697H178v-5.185h44.524V270h9.31zm-8.095 1.197v6.78h6.881v-6.78h-6.88zm14.952 49.86h-26.285v-23.933h-31.167v42.68h57.452v-18.748zm-14.952-1.197h6.881v-36.697h-6.88v36.697zm20.048-40.686h-64.572v2.792h64.572v-2.792zM201 323v11h-9v-11h9zm-1.071 9.854v-8.708h-6.858v8.708h6.858zM201 305v11h-9v-11h9zm-1.071 9.854v-8.708h-6.858v8.708h6.858z"/>
                <path stroke="#747474" stroke-width=".5" d="M420.49 202.252v130.689H426v8.359H316v-8.36h5.306V207.35h16.53v19.98h13.062V189h13.47v38.33h13.06v-12.233h13.674v40.165h12.653v-53.01h16.735zm3.47 136.805h.203v-4.281H318.245v4.281h105.714zM336 209.388h-12.449v123.349h38.776v-30.99h17.142v30.99h38.776V204.29h-12.45v53.01h-16.53v-40.165h-9.592v12.233h-17.142v-38.33h-9.388v38.33H336v-19.98zm41.429 123.349v-28.951h-13.062v28.95h13.062zM353 268.156v20.04h-17v-20.04h17zm-2.024 17.952v-15.865h-12.952v15.865h12.952zM379 268.156v20.04h-17v-20.04h17zm-2.024 17.952v-15.865h-12.952v15.865h12.952zM406 268.156v20.04h-17v-20.04h17zm-2.024 17.952v-15.865h-12.952v15.865h12.952zM353 237.095v20.04h-17v-20.04h17zm-2.024 17.952v-15.865h-12.952v15.865h12.952zM379 237.095v20.04h-17v-20.04h17zm-2.024 17.952v-15.865h-12.952v15.865h12.952zM353 302.223v20.04h-17v-20.04h17zm-2.024 17.952V304.31h-12.952v15.865h12.952zM406 302.223v20.04h-17v-20.04h17zm-2.024 17.952V304.31h-12.952v15.865h12.952z"/>
                <path stroke="#747474" d="M313.093 242.398v92.674H317V341h-78v-5.928h3.763v-89.06h11.721v14.169h9.262V233h9.55v27.18h9.262v-8.674h9.696v28.482h8.972v-37.59h11.867zm2.46 97.012h.145v-3.037h-75.106v3.037h74.96zm-62.371-91.952h-8.828v87.47h27.496v-21.976h12.156v21.976H311.5V243.843h-8.828v37.59h-11.721v-28.481h-6.802v8.675h-12.156v-27.181h-6.656v27.18h-12.156v-14.168zm29.376 87.47v-20.53h-9.261v20.53h9.261zm-17.322-45.796v14.21h-12.054v-14.21h12.054zm-1.435 12.73v-11.25h-9.184v11.25h9.184zm19.872-12.73v14.21h-12.055v-14.21h12.055zm-1.435 12.73v-11.25h-9.185v11.25h9.185zm20.58-12.73v14.21h-12.054v-14.21h12.054zm-1.435 12.73v-11.25H292.2v11.25h9.184zm-36.147-34.757v14.21h-12.054v-14.21h12.054zm-1.435 12.73v-11.25h-9.184v11.25h9.184zm19.872-12.73v14.21h-12.055v-14.21h12.055zm-1.435 12.73v-11.25h-9.185v11.25h9.185zm-17.002 33.454V327.5h-12.054v-14.21h12.054zm-1.435 12.73v-11.25h-9.184v11.25h9.184zm39.017-12.73V327.5h-12.054v-14.21h12.054zm-1.435 12.73v-11.25H292.2v11.25h9.184zM526.907 242.398v92.674H523V341h78v-5.928h-3.763v-89.06h-11.721v14.169h-9.262V233h-9.55v27.18h-9.262v-8.674h-9.696v28.482h-8.972v-37.59h-11.867zm-2.46 97.012h-.145v-3.037h75.106v3.037h-74.96zm62.371-91.952h8.828v87.47H568.15v-21.976h-12.156v21.976H528.5V243.843h8.828v37.59h11.721v-28.481h6.802v8.675h12.156v-27.181h6.656v27.18h12.156v-14.168zm-29.376 87.47v-20.53h9.261v20.53h-9.261zm17.322-45.796v14.21h12.054v-14.21h-12.054zm1.435 12.73v-11.25h9.184v11.25H576.2zm-19.872-12.73v14.21h12.055v-14.21h-12.055zm1.435 12.73v-11.25h9.185v11.25h-9.185zm-20.58-12.73v14.21h12.054v-14.21h-12.054zm1.435 12.73v-11.25h9.184v11.25h-9.184zm36.147-34.757v14.21h12.054v-14.21h-12.054zm1.435 12.73v-11.25h9.184v11.25H576.2zm-19.872-12.73v14.21h12.055v-14.21h-12.055zm1.435 12.73v-11.25h9.185v11.25h-9.185zm17.002 33.454V327.5h12.054v-14.21h-12.054zm1.435 12.73v-11.25h9.184v11.25H576.2zm-39.017-12.73V327.5h12.054v-14.21h-12.054zm1.435 12.73v-11.25h9.184v11.25h-9.184z"/>
                <path d="M76.083 335.542h3.55v-2.384h-3.55v-15.491h3.55v-2.384h-3.55v-15.491h3.55v-2.384h-3.55v-15.491h3.55v-2.384h-3.55V270h-2.366v9.533H64.25V270h-2.367v9.533H31.117V270H28.75v9.533h-9.467V270h-2.366v9.533h-3.55v2.384h3.55v15.491h-3.55v2.384h3.55v15.491h-3.55v2.384h3.55v15.491h-3.55v2.384h3.55v3.575H11v2.383h26.033v-2.383h-5.916v-3.575h30.766v3.575h-5.916v2.383H82v-2.383h-5.917v-3.575zm-56.8-29.792h9.467v3.575h-9.467v-3.575zm54.434-14.3H64.25v-3.575h9.467v3.575zm0 35.75H64.25v-3.575h9.467v3.575zm-11.834 5.16l-12.878-6.948 12.878-6.947v13.895zm-3.53-14.693L46.5 324.06l-11.852-6.394h23.704zm-23.705-2.384L46.5 308.89l11.852 6.394H34.648zm14.357-7.746l12.878-6.947v13.895l-12.878-6.948zm9.347-7.745L46.5 306.186l-11.852-6.394h23.704zm-23.704-2.384l11.852-6.394 11.852 6.394H34.648zm27.235-.798l-12.878-6.948 12.878-6.947v13.895zM46.5 288.31l-11.852-6.394h23.704L46.5 288.31zm-2.505 1.352l-12.878 6.947v-13.895l12.878 6.948zM31.117 300.59l12.878 6.948-12.878 6.947V300.59zm12.878 24.823l-12.878 6.947v-13.895l12.878 6.948zm2.505 1.35l11.852 6.395H34.648l11.852-6.394zm17.75 2.82h9.467v3.575H64.25v-3.575zm9.467-8.341H64.25v-3.575h9.467v3.575zm0-5.959H64.25v-15.491h9.467v15.491zm-9.467-17.875v-3.575h9.467v3.575H64.25zm9.467-15.491v3.575H64.25v-3.575h9.467zm-54.434 0h9.467v15.491h-9.467v-15.491zm9.467 17.875v3.575h-9.467v-3.575h9.467zm-9.467 11.916h9.467v3.575h-9.467v-3.575zm0 5.959h9.467v15.491h-9.467v-15.491zm9.467 21.45h-9.467v-3.575h9.467v3.575zm35.5 0v-3.575h9.467v3.575H64.25zM666.083 335.542h3.55v-2.384h-3.55v-15.491h3.55v-2.384h-3.55v-15.491h3.55v-2.384h-3.55v-15.491h3.55v-2.384h-3.55V270h-2.366v9.533h-9.467V270h-2.367v9.533h-30.766V270h-2.367v9.533h-9.467V270h-2.366v9.533h-3.55v2.384h3.55v15.491h-3.55v2.384h3.55v15.491h-3.55v2.384h3.55v15.491h-3.55v2.384h3.55v3.575H601v2.383h26.033v-2.383h-5.916v-3.575h30.766v3.575h-5.916v2.383H672v-2.383h-5.917v-3.575zm-56.8-29.792h9.467v3.575h-9.467v-3.575zm54.434-14.3h-9.467v-3.575h9.467v3.575zm0 35.75h-9.467v-3.575h9.467v3.575zm-11.834 5.16l-12.878-6.948 12.878-6.947v13.895zm-3.53-14.693L636.5 324.06l-11.852-6.394h23.704zm-23.705-2.384l11.852-6.394 11.852 6.394h-23.704zm14.357-7.746l12.878-6.947v13.895l-12.878-6.948zm9.347-7.745l-11.852 6.394-11.852-6.394h23.704zm-23.704-2.384l11.852-6.394 11.852 6.394h-23.704zm27.235-.798l-12.878-6.948 12.878-6.947v13.895zM636.5 288.31l-11.852-6.394h23.704L636.5 288.31zm-2.505 1.352l-12.878 6.947v-13.895l12.878 6.948zm-12.878 10.927l12.878 6.948-12.878 6.947V300.59zm12.878 24.823l-12.878 6.947v-13.895l12.878 6.948zm2.505 1.35l11.852 6.395h-23.704l11.852-6.394zm17.75 2.82h9.467v3.575h-9.467v-3.575zm9.467-8.341h-9.467v-3.575h9.467v3.575zm0-5.959h-9.467v-15.491h9.467v15.491zm-9.467-17.875v-3.575h9.467v3.575h-9.467zm9.467-15.491v3.575h-9.467v-3.575h9.467zm-54.434 0h9.467v15.491h-9.467v-15.491zm9.467 17.875v3.575h-9.467v-3.575h9.467zm-9.467 11.916h9.467v3.575h-9.467v-3.575zm0 5.959h9.467v15.491h-9.467v-15.491zm9.467 21.45h-9.467v-3.575h9.467v3.575zm35.5 0v-3.575h9.467v3.575h-9.467z"/>
                <path d="M177.008 338.484V307.85h.001v-50.803h-3v33.178h-13.002V274.14h-3v32.172h-12.999v-8.043h-3v9.582h.001v14.547h-13v-15.08h-3v15.08h-.001v16.086h-2.999v-8.043h-10.04v-61.328h29.04v5.025h-2v3.016h2v4.913l-.016-.002a3.245 3.245 0 0 1-3.234 2.954c-1.793 0-3.25-1.466-3.25-3.268 0-.629.178-1.24.517-1.768l-2.522-1.634a6.303 6.303 0 0 0-.994 3.402c0 3.465 2.803 6.284 6.25 6.284 3.234 0 5.909-2.442 6.221-5.678l-1.787-.174h1.814v-5.028h2.027v-3.016h-2.027v-5.026h1v-3.016h-1.721l-31.318-10.635V248H96.008v7.038H94.62l-13.491 11.059h-.121v.098l-.008.007.008.01v2.9h15.001v61.329h-10v8.043h-5.001v3.016h100v-3.016h-4zm-77.999-67.23l10.467 10.523L99.009 292.3v-21.047zm-.001-13.2h10.961v8.043H99.008v-8.043zm10.961 45.594l-9.002-9.05 9.002-9.052v18.102zm0-25.64l-8.847-8.895h8.847v8.895zm-10.96 18.884l9.902 9.956-9.902 9.955v-19.91zm10.96 13.157v18.103l-9.003-9.05 9.003-9.053zm24.944-43.952h-21.944v-7.452l21.944 7.452zm-35.905-15.08h10.961v4.02H99.008v-4.02zm-13.133 15.08l9.813-8.044h.319v8.044H85.875zm13.134 55.302l8.994 9.042h-8.994v-9.042zm-10 12.058h31v5.027h-31v-5.027zm84.999 5.027h-13v-13.07h13v13.07zm0-16.086h-13v-13.07h13v13.07zm-13-29.156h13v13.07h-13v-13.07zm-15.999 16.086h12.999v13.07h-12.999v-13.07zm-16.001 29.156v-13.07h13.001v13.07h-13.001zm16.001-13.07h12.999v13.07h-12.999v-13.07zM428 338.484V307.85h-.001v-50.803h3v33.178h13.002V274.14h3v32.172H460v-8.043h3v9.582h-.001v14.547h13v-15.08h3v15.08H479v16.086h2.999v-8.043h10.04v-61.328h-29.04v5.025h2v3.016h-2v4.913l.016-.002a3.245 3.245 0 0 0 3.234 2.954c1.793 0 3.25-1.466 3.25-3.268 0-.629-.178-1.24-.517-1.768l2.522-1.634a6.303 6.303 0 0 1 .994 3.402c0 3.465-2.803 6.284-6.25 6.284-3.234 0-5.909-2.442-6.221-5.678l1.787-.174H460v-5.028h-2.027v-3.016H460v-5.026h-1v-3.016h1.721l31.318-10.635V248H509v7.038h1.388l13.491 11.059H524v.098l.008.007-.008.01v2.9h-15.001v61.329h10v8.043H524v3.016H424v-3.016h4zm77.999-67.23l-10.467 10.523 10.467 10.523v-21.047zm.001-13.2h-10.961v8.043H506v-8.043zm-10.961 45.594l9.002-9.05-9.002-9.052v18.102zm0-25.64l8.847-8.895h-8.847v8.895zm10.96 18.884l-9.902 9.956 9.902 9.955v-19.91zm-10.96 13.157v18.103l9.003-9.05-9.003-9.053zm-24.944-43.952h21.944v-7.452l-21.944 7.452zM506 251.017h-10.961v4.02H506v-4.02zm13.133 15.08l-9.813-8.044h-.319v8.044h10.132zm-13.134 55.302l-8.994 9.042h8.994v-9.042zm10 12.058h-31v5.027h31v-5.027zM431 338.484h13v-13.07h-13v13.07zm0-16.086h13v-13.07h-13v13.07zm13-29.156h-13v13.07h13v-13.07zm15.999 16.086H447v13.07h12.999v-13.07zM476 338.484v-13.07h-13.001v13.07H476zm-16.001-13.07H447v13.07h12.999v-13.07z"/>
            </g>
            <path fill="#FED766" fill-rule="nonzero" d="M274.704 105.325h10.84v19.043h-10.84V147h-24.683v-22.632h-41.235l-1.465-15.088 42.7-68.7v-.22h24.683v64.965zm-43.872 0h19.19V72.513l-1.539 2.49-17.651 30.322zm145.225-1.904c0 14.404-3.235 25.513-9.705 33.325-6.47 7.813-15.588 11.719-27.356 11.719-11.865 0-21.045-3.93-27.539-11.792s-9.741-18.945-9.741-33.252V83.938c0-14.404 3.235-25.512 9.704-33.325 6.47-7.812 15.613-11.718 27.43-11.718 11.816 0 20.971 3.93 27.465 11.792 6.495 7.86 9.742 18.97 9.742 33.325v19.409zm-24.683-22.632c0-7.666-1-13.391-3.003-17.175-2.002-3.784-5.176-5.676-9.521-5.676-4.248 0-7.337 1.757-9.266 5.273-1.928 3.516-2.966 8.838-3.112 15.967v27.246c0 7.959 1 13.782 3.003 17.468 2.002 3.687 5.175 5.53 9.521 5.53 4.2 0 7.3-1.795 9.302-5.383 2.002-3.59 3.027-9.217 3.076-16.883V80.79zm108.31 24.536h10.84v19.043h-10.84V147h-24.682v-22.632h-41.235l-1.465-15.088 42.7-68.7v-.22h24.683v64.965zm-43.871 0h19.189V72.513l-1.538 2.49-17.651 30.322z" mask="url(#b)"/>
        </g>
        <g transform="translate(309 302)">
            <ellipse cx="32.264" cy="32.311" fill="#FED766" rx="32.264" ry="32.311"/>
            <path fill="#FFF" fill-rule="nonzero" stroke="#FFF" d="M47.265 44.065L40.36 37.16a12.061 12.061 0 0 0 2.743-7.672c0-6.682-5.422-12.104-12.104-12.104-6.688 0-12.104 5.422-12.104 12.104 0 6.682 5.416 12.103 12.104 12.103a12.04 12.04 0 0 0 7.667-2.737l6.905 6.899a1.196 1.196 0 0 0 1.694 0 1.189 1.189 0 0 0 0-1.688zm-16.266-4.883c-5.351 0-9.7-4.349-9.7-9.694 0-5.346 4.349-9.701 9.7-9.701 5.346 0 9.7 4.355 9.7 9.7 0 5.346-4.354 9.695-9.7 9.695z"/>
        </g>
    </g>
</svg>
